<svg version="1.2" baseProfile="tiny-ps" xmlns="http://www.w3.org/2000/svg" viewBox="0 0 32 32" width="32" height="32">
	<title>lightTheme-svg</title>
	<style>
		tspan { white-space:pre }
		.shp0 { fill: #ffffff } 
	</style>
	<g id="Layer">
		<path id="Layer" class="shp0" d="M13 7C12.4 7 12 6.6 12 6L12 5C12 4.4 12.4 4 13 4C13.6 4 14 4.4 14 5L14 6C14 6.6 13.6 7 13 7Z" />
	</g>
	<g id="Layer">
		<path id="Layer" class="shp0" d="M5.9 9.9C5.6 9.9 5.4 9.8 5.2 9.6L3.1 7.5C2.7 7.1 2.7 6.5 3.1 6.1C3.5 5.7 4.1 5.7 4.5 6.1L6.6 8.2C7 8.6 7 9.2 6.6 9.6C6.4 9.8 6.2 9.9 5.9 9.9Z" />
	</g>
	<g id="Layer">
		<path id="Layer" class="shp0" d="M3 17L2 17C1.4 17 1 16.6 1 16C1 15.4 1.4 15 2 15L3 15C3.6 15 4 15.4 4 16C4 16.6 3.6 17 3 17Z" />
	</g>
	<g id="Layer">
		<path id="Layer" class="shp0" d="M3.8 26.2C3.5 26.2 3.3 26.1 3.1 25.9C2.7 25.5 2.7 24.9 3.1 24.5L5.2 22.4C5.6 22 6.2 22 6.6 22.4C7 22.8 7 23.4 6.6 23.8L4.5 25.9C4.3 26.1 4.1 26.2 3.8 26.2Z" />
	</g>
	<g id="Layer">
		<path id="Layer" class="shp0" d="M13 28C12.4 28 12 27.6 12 27L12 26C12 25.4 12.4 25 13 25C13.6 25 14 25.4 14 26L14 27C14 27.6 13.6 28 13 28Z" />
	</g>
	<g id="Layer">
		<path id="Layer" class="shp0" d="M22 25C17 25 13 21 13 16C13 11 17 7 22 7C27 7 31 11 31 16C31 21 27 25 22 25Z" />
	</g>
	<path id="Layer" class="shp0" d="M13 16C13 12.9 14.3 10.1 16.3 8.1C15.9 8 15.5 8 15 8C10.6 8 7 11.6 7 16C7 20.4 10.6 24 15 24C15.5 24 15.9 24 16.3 23.9C14.3 21.9 13 19.1 13 16Z" />
</svg>