<svg width="178" height="175" viewBox="0 0 178 175" fill="none" xmlns="http://www.w3.org/2000/svg">
<path d="M19.3492 70.0474H17.152C14.7942 70.0474 12.5329 70.9841 10.8656 72.6513C9.19837 74.3186 8.26172 76.5799 8.26172 78.9377V127.723C8.26172 130.081 9.19837 132.342 10.8656 134.009C12.5329 135.676 14.7942 136.613 17.152 136.613H47.2971C49.655 136.613 51.9162 135.676 53.5835 134.009C55.2507 132.342 56.1874 130.081 56.1874 127.723" stroke="#263238" stroke-width="0.599155" stroke-linecap="round" stroke-linejoin="round" stroke-dasharray="2.4 2.4"/>
<path d="M53.7305 24.0149V14.3787C53.7305 12.9369 54.3024 11.5539 55.3208 10.5332C56.3392 9.51252 57.7209 8.93749 59.1627 8.93427H98.3644C99.8083 8.93427 101.193 9.50787 102.214 10.5289C103.235 11.5499 103.809 12.9348 103.809 14.3787" stroke="#263238" stroke-width="0.599155" stroke-linecap="round" stroke-linejoin="round" stroke-dasharray="2.4 2.4"/>
<path d="M89.0004 174.226C131.88 174.226 166.641 169.369 166.641 163.377C166.641 157.386 131.88 152.529 89.0004 152.529C46.1205 152.529 11.3594 157.386 11.3594 163.377C11.3594 169.369 46.1205 174.226 89.0004 174.226Z" fill="#FF8100"/>
<path opacity="0.5" d="M89.0004 174.226C131.88 174.226 166.641 169.369 166.641 163.377C166.641 157.386 131.88 152.529 89.0004 152.529C46.1205 152.529 11.3594 157.386 11.3594 163.377C11.3594 169.369 46.1205 174.226 89.0004 174.226Z" fill="white"/>
<path d="M162.19 36.9429V109.938C162.19 112.324 161.242 114.613 159.555 116.301C157.868 117.988 155.58 118.937 153.194 118.938H24.8058C22.4196 118.937 20.1315 117.988 18.4446 116.301C16.7577 114.613 15.8101 112.324 15.8101 109.938V36.9429C15.8101 36.7281 15.8101 36.5375 15.8384 36.3105C15.9965 34.0398 17.0098 31.9135 18.6741 30.3607C20.3383 28.8078 22.5295 27.9439 24.8058 27.9432H153.194C155.473 27.9441 157.666 28.8103 159.331 30.3666C160.996 31.9229 162.007 34.0531 162.161 36.3267C162.182 36.5213 162.19 36.7321 162.19 36.9429Z" fill="white" stroke="#263238" stroke-width="0.599155" stroke-linecap="round" stroke-linejoin="round"/>
<path d="M20.1885 39.6834H158.27V107.113C158.27 109.349 157.381 111.494 155.8 113.075C154.219 114.656 152.074 115.545 149.838 115.545H28.6247C26.3884 115.545 24.2436 114.656 22.6623 113.075C21.0809 111.494 20.1925 109.349 20.1925 107.113V39.6834H20.1885Z" fill="#263238"/>
<path opacity="0.2" d="M158.274 39.6834V107.113C158.286 109.336 157.414 111.474 155.85 113.055C154.286 114.636 152.159 115.532 149.935 115.545H28.5276C26.3037 115.532 24.176 114.636 22.6123 113.055C21.0485 111.474 20.1767 109.336 20.1886 107.113V39.6834H158.274Z" fill="white"/>
<path d="M162.162 36.327H15.8389C15.9969 34.0563 17.0103 31.93 18.6745 30.3771C20.3387 28.8243 22.53 27.9603 24.8062 27.9597H153.194C155.471 27.9603 157.662 28.8243 159.326 30.3771C160.99 31.93 162.004 34.0563 162.162 36.327Z" fill="#FF8100" stroke="#263238" stroke-width="0.599155" stroke-miterlimit="10"/>
<path d="M33.8177 32.1269C33.8177 32.442 33.7243 32.75 33.5492 33.012C33.3742 33.274 33.1254 33.4782 32.8342 33.5988C32.5431 33.7194 32.2228 33.7509 31.9137 33.6894C31.6047 33.628 31.3208 33.4762 31.098 33.2534C30.8752 33.0306 30.7234 32.7467 30.662 32.4377C30.6005 32.1286 30.632 31.8083 30.7526 31.5172C30.8732 31.2261 31.0774 30.9772 31.3394 30.8022C31.6014 30.6271 31.9094 30.5337 32.2245 30.5337C32.6471 30.5337 33.0523 30.7015 33.3511 31.0003C33.6499 31.2991 33.8177 31.7043 33.8177 32.1269Z" fill="#263238"/>
<path d="M40.5555 32.1269C40.5555 32.442 40.4621 32.75 40.287 33.012C40.112 33.274 39.8631 33.4782 39.572 33.5988C39.2809 33.7194 38.9606 33.7509 38.6515 33.6894C38.3425 33.628 38.0586 33.4762 37.8358 33.2534C37.613 33.0306 37.4612 32.7467 37.3998 32.4377C37.3383 32.1286 37.3698 31.8083 37.4904 31.5172C37.611 31.2261 37.8152 30.9772 38.0772 30.8022C38.3392 30.6271 38.6472 30.5337 38.9623 30.5337C39.3849 30.5337 39.7901 30.7015 40.0889 31.0003C40.3877 31.2991 40.5555 31.7043 40.5555 32.1269Z" fill="#263238"/>
<path d="M45.7001 33.7201C46.58 33.7201 47.2933 33.0068 47.2933 32.1269C47.2933 31.247 46.58 30.5337 45.7001 30.5337C44.8202 30.5337 44.1069 31.247 44.1069 32.1269C44.1069 33.0068 44.8202 33.7201 45.7001 33.7201Z" fill="#263238"/>
<path d="M158.27 39.6834V107.113C158.27 109.349 157.381 111.494 155.8 113.075C154.219 114.656 152.074 115.545 149.838 115.545H28.6248C26.6729 115.544 24.7817 114.867 23.2736 113.628C21.7654 112.389 20.7338 110.665 20.3547 108.75V108.726C20.2517 108.192 20.2001 107.649 20.2007 107.104V39.6834H158.27Z" stroke="#263238" stroke-width="0.599155" stroke-miterlimit="10"/>
<path d="M158.14 50.1101C157.549 49.7782 156.92 49.5182 156.267 49.3358L155.509 45.9508H152.29L151.54 49.3358C150.884 49.515 150.252 49.7751 149.659 50.1101L146.753 48.2494L144.478 50.5155L146.307 53.4222C145.972 54.0149 145.712 54.6467 145.533 55.3032L142.147 56.0532V59.2721L145.533 60.0301C145.71 60.69 145.97 61.3247 146.307 61.9193L144.446 64.8462L146.724 67.1205L149.647 65.2597C150.239 65.5954 150.869 65.8568 151.524 66.0381L152.278 69.4191H155.485L156.239 66.0381C156.892 65.855 157.521 65.5937 158.112 65.2597L158.262 65.357V50.0291L158.14 50.1101ZM153.908 61.8666C153.085 61.8666 152.281 61.6225 151.597 61.1653C150.913 60.7081 150.38 60.0583 150.065 59.298C149.75 58.5377 149.668 57.7012 149.829 56.8943C149.99 56.0873 150.386 55.3462 150.968 54.7647C151.55 54.1832 152.292 53.7873 153.099 53.6273C153.906 53.4673 154.743 53.5502 155.502 53.8657C156.262 54.1811 156.912 54.7148 157.368 55.3994C157.825 56.0839 158.068 56.8885 158.067 57.7113C158.067 58.2573 157.96 58.798 157.751 59.3024C157.542 59.8068 157.235 60.265 156.849 60.651C156.463 61.0369 156.004 61.3429 155.499 61.5514C154.995 61.76 154.454 61.8671 153.908 61.8666Z" fill="#263238"/>
<path d="M100.128 53.3736V46.5873L92.9935 45.0022C92.6085 43.6235 92.0643 42.2943 91.3719 41.0415L92.2354 39.6834H58.5472L59.3782 41.005C58.6774 42.2523 58.1328 43.5812 57.7567 44.9616L50.6177 46.5508V53.3533L57.7567 54.9465C58.1328 56.3372 58.6773 57.6768 59.3782 58.9356L55.4581 65.1016L60.262 69.9015L66.424 65.9773C67.6741 66.6805 69.0037 67.2316 70.3847 67.6191L71.9738 74.7338H78.7439L80.3412 67.6029C81.7176 67.2136 83.043 66.6625 84.2897 65.961L90.4557 69.8853L95.2556 65.0854L91.3598 58.9193C92.0504 57.6685 92.5945 56.3422 92.9814 54.9668L100.128 53.3736ZM75.3994 58.7491C73.6651 58.7491 71.9698 58.2348 70.5278 57.2713C69.0858 56.3078 67.9619 54.9383 67.2982 53.336C66.6345 51.7338 66.4609 49.9707 66.7992 48.2697C67.1376 46.5688 67.9727 45.0063 69.199 43.78C70.4253 42.5537 71.9878 41.7186 73.6887 41.3802C75.3897 41.0419 77.1528 41.2155 78.755 41.8792C80.3573 42.5429 81.7268 43.6668 82.6903 45.1088C83.6538 46.5508 84.1681 48.2461 84.1681 49.9804C84.1686 51.1321 83.9422 52.2726 83.5017 53.3367C83.0612 54.4008 82.4153 55.3676 81.601 56.182C80.7866 56.9963 79.8198 57.6422 78.7557 58.0827C77.6916 58.5232 76.5511 58.7496 75.3994 58.7491Z" fill="#263238"/>
<path d="M55.101 99.9736L55.3888 94.5859L49.8066 93.013C49.5474 91.9058 49.1639 90.8314 48.6634 89.8104L52.0362 85.0754L48.4201 81.066L43.3689 83.9038C42.4034 83.2963 41.3709 82.8025 40.292 82.4322L39.3271 76.708L33.9435 76.4608L32.3868 82.0592C31.2776 82.308 30.2024 82.6891 29.1842 83.1943L24.4532 79.8255L20.4358 83.4376L23.2978 88.4928C22.6843 89.4541 22.1888 90.4859 21.8222 91.5657L20.2006 91.8333V99.1304L21.3844 99.4628C21.63 100.574 22.0098 101.65 22.5154 102.669L20.1885 105.933L20.3425 108.726V108.75L22.7465 111.414L27.8058 108.556C28.7697 109.176 29.8057 109.675 30.8909 110.044L31.8395 115.541L31.8841 115.772L37.2677 116.056L37.4096 115.541L38.8244 110.461C39.9386 110.212 41.0191 109.831 42.0433 109.326L46.7661 112.691L50.7795 109.083L47.9418 104.023C48.5496 103.063 49.0384 102.033 49.3971 100.955L55.101 99.9736ZM40.8028 91.5617C39.8806 90.5359 38.6749 89.8067 37.3382 89.4664C36.0015 89.126 34.5939 89.1897 33.2934 89.6494C31.9929 90.1092 30.858 90.9443 30.0323 92.0492C29.2065 93.154 28.727 94.479 28.6544 95.8564C28.5817 97.2338 28.9193 98.6019 29.6243 99.7874C30.3293 100.973 31.3701 101.923 32.6151 102.517C33.86 103.111 35.2531 103.322 36.6182 103.124C37.9832 102.926 39.2589 102.328 40.2839 101.405C41.6523 100.168 42.4753 98.4401 42.5725 96.5984C42.6698 94.7567 42.0334 92.9515 40.8028 91.5779V91.5617Z" fill="#263238"/>
<path d="M98.162 91.9428C98.3703 91.1085 98.4805 90.2527 98.4903 89.3928L102.362 87.3659L101.292 83.4376L96.9215 83.6403C96.4789 82.9061 95.9524 82.2259 95.3526 81.6133L96.6458 77.4337L93.1189 75.4067L90.1676 78.6256C89.3348 78.4245 88.4824 78.3158 87.6258 78.3012L85.5988 74.4297L81.6746 75.4959L81.8814 79.8701C81.1471 80.3126 80.4668 80.8391 79.8544 81.439L75.6707 80.1458L73.6437 83.6687L76.8869 86.6159C76.6772 87.447 76.5696 88.3006 76.5666 89.1577L72.687 91.1847L73.7573 95.1089L78.1355 94.9021C78.5694 95.6401 79.0938 96.321 79.6963 96.9291L78.395 101.088L81.9259 103.115L84.861 99.9209C85.6948 100.131 86.5511 100.238 87.4109 100.241L89.4379 104.117L93.3621 103.051L93.1878 99.3128L93.1594 98.6723C93.904 98.234 94.5928 97.7072 95.2107 97.1034L99.3903 98.4007L101.117 95.3845L101.409 94.8738L98.162 91.9428ZM88.8906 94.3265C87.8843 94.604 86.8182 94.5764 85.8275 94.2472C84.8369 93.918 83.9663 93.302 83.3263 92.4774C82.6862 91.6527 82.3054 90.6565 82.2323 89.6152C82.1592 88.5738 82.397 87.5342 82.9155 86.6282C83.4341 85.7222 84.21 84.9906 85.1449 84.5262C86.0798 84.0617 87.1316 83.8854 88.1669 84.0196C89.2021 84.1538 90.1742 84.5924 90.9598 85.2798C91.7455 85.9672 92.3093 86.8724 92.5797 87.8807C92.9401 89.2245 92.7546 90.6563 92.0635 91.8638C91.3724 93.0713 90.2318 93.9566 88.8906 94.3265Z" fill="#263238"/>
<path d="M143.047 98.8507L143.939 93.4589L138.483 91.2657C138.359 90.1166 138.096 88.9868 137.7 87.901L141.628 83.5268L138.45 79.0674L133.034 81.366C132.135 80.6452 131.152 80.0354 130.107 79.5498L129.791 73.6757L124.399 72.7838L122.19 78.2161C121.046 78.3505 119.921 78.6158 118.837 79.0066L114.451 75.0783L110.012 78.2566L112.314 83.6686C111.681 84.4597 111.13 85.3142 110.673 86.2186C110.612 86.3443 110.547 86.4699 110.49 86.5956L104.62 86.9199L103.724 92.3035L104.608 92.6603L109.181 94.5048C109.306 95.6485 109.568 96.7728 109.963 97.8534L106.027 102.256L109.209 106.715L114.621 104.405C115.517 105.132 116.499 105.747 117.544 106.237L117.848 112.083L123.236 112.975L125.441 107.583C126.588 107.458 127.715 107.193 128.798 106.796L133.176 110.725L137.635 107.542L135.333 102.126C136.066 101.226 136.686 100.239 137.177 99.1871L143.047 98.8507ZM127.926 98.6074C126.792 99.4212 125.442 99.8804 124.046 99.9268C122.651 99.9733 121.274 99.6049 120.088 98.8683C118.902 98.1317 117.961 97.0599 117.384 95.7886C116.808 94.5173 116.621 93.1035 116.848 91.726C117.074 90.3485 117.705 89.0693 118.659 88.05C119.613 87.0307 120.847 86.3173 122.207 85.9998C123.566 85.6824 124.989 85.7752 126.296 86.2666C127.603 86.758 128.734 87.6258 129.548 88.7604C130.637 90.2823 131.078 92.1747 130.772 94.0214C130.467 95.868 129.44 97.5177 127.918 98.6074H127.926Z" fill="#263238"/>
<path d="M69.9789 58.9356H27.5828C24.6475 58.9356 22.2681 61.315 22.2681 64.2503V122.947C22.2681 125.883 24.6475 128.262 27.5828 128.262H69.9789C72.9141 128.262 75.2936 125.883 75.2936 122.947V64.2503C75.2936 61.315 72.9141 58.9356 69.9789 58.9356Z" fill="#FF8100" stroke="#263238" stroke-width="0.599155" stroke-miterlimit="10"/>
<path opacity="0.2" d="M69.9789 58.9356H27.5828C24.6475 58.9356 22.2681 61.315 22.2681 64.2503V122.947C22.2681 125.883 24.6475 128.262 27.5828 128.262H69.9789C72.9141 128.262 75.2936 125.883 75.2936 122.947V64.2503C75.2936 61.315 72.9141 58.9356 69.9789 58.9356Z" fill="black"/>
<path d="M80.2271 69.488V128.185C80.2276 128.883 80.0905 129.575 79.8237 130.22C79.5568 130.865 79.1654 131.452 78.6718 131.946C78.1783 132.44 77.5922 132.831 76.9471 133.099C76.3021 133.366 75.6106 133.504 74.9123 133.504H32.5162C31.8183 133.503 31.1273 133.365 30.4827 133.098C29.8381 132.83 29.2525 132.438 28.7593 131.944C28.2662 131.45 27.8752 130.864 27.6086 130.219C27.342 129.574 27.205 128.883 27.2056 128.185V69.488C27.2056 68.0791 27.765 66.7279 28.7608 65.7313C29.7566 64.7348 31.1074 64.1743 32.5162 64.1733H74.9123C76.3219 64.1733 77.6737 64.7332 78.6704 65.7299C79.6671 66.7266 80.2271 68.0784 80.2271 69.488Z" fill="white" stroke="#263238" stroke-width="0.599155" stroke-linecap="round" stroke-linejoin="round"/>
<path d="M80.2271 69.488V72.6298H27.2056V69.488C27.2056 68.0791 27.765 66.7279 28.7608 65.7313C29.7566 64.7348 31.1074 64.1743 32.5162 64.1733H74.9123C76.3219 64.1733 77.6737 64.7332 78.6704 65.7299C79.6671 66.7266 80.2271 68.0784 80.2271 69.488Z" fill="#FF8100" stroke="#263238" stroke-width="0.599155" stroke-miterlimit="10"/>
<path d="M45.2375 76.2702H32.1919V78.4593H45.2375V76.2702Z" fill="#FF8100"/>
<path d="M45.2375 95.8872H32.1919V98.0764H45.2375V95.8872Z" fill="#FF8100"/>
<path d="M45.2375 113.676H32.1919V115.865H45.2375V113.676Z" fill="#FF8100"/>
<path d="M69.2409 81.6903H32.1919V83.2957H69.2409V81.6903Z" fill="#263238"/>
<path d="M62.56 84.7592H32.1919V86.324H62.56V84.7592Z" fill="#263238"/>
<path d="M66.5369 87.7794H32.1919V89.3442H66.5369V87.7794Z" fill="#263238"/>
<path d="M66.5369 90.7955H32.1919V92.3603H66.5369V90.7955Z" fill="#263238"/>
<path d="M69.2409 99.479H32.1919V101.084H69.2409V99.479Z" fill="#263238"/>
<path d="M62.56 102.548H32.1919V104.113H62.56V102.548Z" fill="#263238"/>
<path d="M66.5369 105.568H32.1919V107.133H66.5369V105.568Z" fill="#263238"/>
<path d="M69.2409 119.011H32.1919V120.616H69.2409V119.011Z" fill="#263238"/>
<path d="M62.56 122.084H32.1919V123.649H62.56V122.084Z" fill="#263238"/>
<path d="M66.5369 125.104H32.1919V126.669H66.5369V125.104Z" fill="#263238"/>
<path d="M139.987 23.4717V47.1954C139.987 48.0278 139.823 48.8521 139.504 49.6211C139.185 50.3901 138.718 51.0888 138.129 51.6772C137.541 52.2657 136.842 52.7323 136.072 53.0505C135.303 53.3687 134.479 53.5322 133.646 53.5317H79.0074C78.1749 53.5322 77.3505 53.3687 76.5813 53.0505C75.8121 52.7323 75.1131 52.2657 74.5243 51.6772C73.9355 51.0888 73.4684 50.3901 73.1497 49.6211C72.831 48.8521 72.667 48.0278 72.667 47.1954V23.4717C72.6681 21.7905 73.3364 20.1784 74.5252 18.9896C75.714 17.8007 77.3261 17.1324 79.0074 17.1313H133.646C135.328 17.1313 136.941 17.7993 138.13 18.9884C139.319 20.1774 139.987 21.7901 139.987 23.4717Z" fill="white" stroke="#222221" stroke-width="0.599155" stroke-miterlimit="10"/>
<path d="M139.987 23.4717V24.0149H72.667V23.4717C72.6681 21.7905 73.3364 20.1784 74.5252 18.9896C75.714 17.8007 77.3261 17.1324 79.0074 17.1313H133.646C135.328 17.1313 136.941 17.7993 138.13 18.9884C139.319 20.1774 139.987 21.7901 139.987 23.4717Z" fill="#FF8100" stroke="#263238" stroke-width="0.599155" stroke-miterlimit="10"/>
<path d="M82.5582 21.7082C82.4223 21.8445 82.2489 21.9374 82.0601 21.9752C81.8713 22.0129 81.6756 21.9938 81.4976 21.9202C81.3197 21.8466 81.1676 21.7219 81.0606 21.5619C80.9536 21.4018 80.8965 21.2136 80.8965 21.0211C80.8965 20.8285 80.9536 20.6403 81.0606 20.4803C81.1676 20.3202 81.3197 20.1955 81.4976 20.122C81.6756 20.0484 81.8713 20.0293 82.0601 20.067C82.2489 20.1047 82.4223 20.1976 82.5582 20.3339C82.7392 20.5168 82.8407 20.7638 82.8407 21.0211C82.8407 21.2784 82.7392 21.5253 82.5582 21.7082Z" fill="#263238"/>
<path d="M87.0665 21.7082C86.9306 21.8445 86.7572 21.9374 86.5684 21.9752C86.3796 22.0129 86.1839 21.9938 86.0059 21.9202C85.828 21.8466 85.6759 21.7219 85.5689 21.5619C85.4619 21.4018 85.4048 21.2136 85.4048 21.0211C85.4048 20.8285 85.4619 20.6403 85.5689 20.4803C85.6759 20.3202 85.828 20.1955 86.0059 20.122C86.1839 20.0484 86.3796 20.0293 86.5684 20.067C86.7572 20.1047 86.9306 20.1976 87.0665 20.3339C87.2475 20.5168 87.349 20.7638 87.349 21.0211C87.349 21.2784 87.2475 21.5253 87.0665 21.7082Z" fill="#263238"/>
<path d="M91.5744 21.7082C91.4384 21.8445 91.265 21.9374 91.0762 21.9752C90.8874 22.0129 90.6917 21.9938 90.5138 21.9202C90.3358 21.8466 90.1837 21.7219 90.0767 21.5619C89.9697 21.4018 89.9126 21.2136 89.9126 21.0211C89.9126 20.8285 89.9697 20.6403 90.0767 20.4803C90.1837 20.3202 90.3358 20.1955 90.5138 20.122C90.6917 20.0484 90.8874 20.0293 91.0762 20.067C91.265 20.1047 91.4384 20.1976 91.5744 20.3339C91.7553 20.5168 91.8568 20.7638 91.8568 21.0211C91.8568 21.2784 91.7553 21.5253 91.5744 21.7082Z" fill="#263238"/>
<path d="M98.9647 28.377H76.96V47.398H98.9647V28.377Z" stroke="#263238" stroke-width="0.599155" stroke-linecap="round" stroke-linejoin="round" stroke-dasharray="2.4 2.4"/>
<path d="M127.687 28.377H102.362V29.7148H127.687V28.377Z" fill="#263238"/>
<path d="M121.788 31.1458H102.362V32.4795H121.788V31.1458Z" fill="#263238"/>
<path d="M131.287 33.9025H102.362V35.2524H131.287V33.9025Z" fill="#263238"/>
<path d="M126.994 36.5903H102.362V37.9402H126.994V36.5903Z" fill="#263238"/>
<path d="M141.827 82.3511H129.442C127.98 82.3511 126.795 83.5363 126.795 84.9984V92.2671C126.795 93.7291 127.98 94.9143 129.442 94.9143H141.827C143.289 94.9143 144.474 93.7291 144.474 92.2671V84.9984C144.474 83.5363 143.289 82.3511 141.827 82.3511Z" fill="white" stroke="#263238" stroke-width="0.599155" stroke-linecap="round" stroke-linejoin="round"/>
<path d="M132.498 86.1294L129.097 88.2618L132.255 91.059" stroke="#263238" stroke-width="0.599155" stroke-linecap="round" stroke-linejoin="round"/>
<path d="M138.693 91.2617L141.75 88.659L138.223 86.3483" stroke="#263238" stroke-width="0.599155" stroke-linecap="round" stroke-linejoin="round"/>
<path d="M134.153 92.867L136.662 84.9943" stroke="#263238" stroke-width="0.599155" stroke-linecap="round" stroke-linejoin="round"/>
<path d="M107.997 161.379C107.997 161.379 96.2404 164.747 94.5985 165.331C93.1067 165.858 89.0608 167.277 86.0244 166.835C85.7313 166.793 85.4415 166.731 85.1569 166.649C82.08 165.733 80.6976 164.877 80.2922 162.943C79.8868 161.01 81.4192 159.583 82.8948 158.671C84.3704 157.758 92.3729 156.806 92.3729 156.806L94.3066 157.373L107.997 161.379Z" fill="#FF8100"/>
<path d="M86.0244 166.835C85.7313 166.793 85.4415 166.731 85.1569 166.649C82.08 165.733 80.6976 164.877 80.2922 162.943C79.8868 161.01 81.4192 159.583 82.8948 158.671C84.3704 157.758 92.3729 156.806 92.3729 156.806L94.3066 157.373C92.5553 158.184 86.0366 158.626 84.6137 159.445C83.1907 160.264 82.5056 161.804 83.3448 163.904C83.7948 164.999 84.9947 166.073 86.0244 166.835Z" fill="white"/>
<path d="M106.229 161.857C106.229 161.857 97.4 164.143 93.8974 165.607C90.3948 167.07 83.7179 167.711 81.3302 164.695C78.9424 161.679 81.0545 159.076 83.4342 158.496C85.8138 157.917 90.6258 157.004 93.2528 157.373" stroke="#263238" stroke-width="0.599155" stroke-linecap="round" stroke-linejoin="round"/>
<path d="M86.1985 166.677C86.1985 166.677 81.7067 164.212 83.1986 160.758C84.3013 158.213 90.293 158.764 93.2605 157.373" stroke="#263238" stroke-width="0.599155" stroke-linecap="round" stroke-linejoin="round"/>
<path d="M143.805 167.383C143.684 168.599 143.258 169.738 142.042 170.455C141.231 170.934 140.08 171.218 138.43 171.201C134.307 171.149 126.556 168.201 126.556 168.201L119.299 164.188L123.074 158.217L124.107 156.595L126.775 157.195C126.775 157.195 128.984 158.448 131.206 159.445C133.427 160.442 138.823 160.661 140.724 162.189C142.626 163.718 144.012 165.38 143.805 167.383Z" fill="#FF8100"/>
<path d="M143.805 167.383C143.683 168.599 143.258 169.738 142.042 170.455C142.392 169.26 142.32 167.98 141.839 166.831C141.028 165.011 138.389 163.406 134.919 163.138C131.449 162.87 128.793 161.249 127.403 160.523C126.316 159.96 124.026 158.727 123.073 158.217L124.107 156.595L126.774 157.195C126.774 157.195 128.984 158.448 131.205 159.445C133.427 160.442 138.823 160.661 140.724 162.189C142.625 163.718 144.012 165.38 143.805 167.383Z" fill="white"/>
<path d="M120.909 165.315C126.132 168.351 131.905 170.323 137.895 171.116C139.216 171.274 140.753 171.299 141.637 170.305C141.872 170.019 142.047 169.687 142.151 169.331C142.256 168.976 142.287 168.602 142.245 168.234C142.087 166.369 140.518 164.893 138.799 164.152C137.08 163.41 135.187 163.239 133.358 162.83C131.54 162.42 129.782 161.777 128.129 160.916C126.815 160.231 125.547 159.4 124.099 159.092C122.652 158.784 120.929 159.157 120.155 160.422" stroke="#263238" stroke-width="0.599155" stroke-linecap="round" stroke-linejoin="round"/>
<path d="M141.15 170.812C141.829 170.487 142.423 170.007 142.884 169.412C143.345 168.817 143.661 168.122 143.806 167.383C144.069 165.627 143.068 163.86 141.661 162.781C140.254 161.703 138.491 161.192 136.752 160.831C135.013 160.471 133.233 160.227 131.567 159.567C129.025 158.569 126.516 156.607 123.864 157.308" stroke="#263238" stroke-width="0.599155" stroke-linecap="round" stroke-linejoin="round"/>
<path d="M129.098 102.511L116.818 97.8412L116.664 97.7804C116.664 97.7804 116.709 97.4561 116.745 96.9696C116.822 95.9886 116.863 94.3913 116.401 93.8521C115.716 93.0414 113.778 93.7224 111.885 92.8549C109.991 91.9873 106.493 93.54 106.493 93.54C106.493 93.54 103.963 93.0738 102.844 94.8981C102.277 96.3697 102.471 98.5466 102.471 98.5466L102.24 98.6277C100.777 99.175 92.8148 102.171 91.1324 103.375C89.2717 104.692 87.2123 118.22 86.5515 122.193C85.8907 126.166 84.715 129.746 85.311 131.112C85.9069 132.478 94.4607 139.066 99.3822 140.764C104.304 142.463 121.756 141.981 121.756 141.981C121.756 141.981 122.04 141.904 122.546 141.741C125.498 140.793 135.969 136.877 141.527 127.682C141.535 127.699 136.151 110.052 129.098 102.511ZM95.9201 125.266C95.0161 125.907 95.5148 128.388 95.5148 128.388L93.9783 127.034L97.8377 117.543L99.4835 124.84C99.4835 124.84 96.8242 124.63 95.9201 125.266ZM126.795 131.294C126.369 131.513 128.011 126.953 127.233 125.919C126.454 124.885 124.107 124.982 124.107 124.982L124.306 123.738L125.696 116.603L126.158 116.056C126.158 116.056 130.934 124.24 131.789 127.127C131.789 127.135 126.584 131.294 126.795 131.294Z" fill="#FF8100"/>
<path d="M105.913 72.9135L99.5725 79.6431C99.5725 79.6431 98.7009 80.4174 99.0455 82.3673C99.39 84.3173 100.201 86.0159 100.813 86.1294C101.298 86.2142 101.789 86.2576 102.281 86.2591C102.281 86.2591 103.639 89.2023 104.603 90.3577C104.603 90.3577 104.936 94.9021 104.757 96.1629C104.757 96.1629 107.036 98.1534 109.18 98.4047C111.325 98.6561 114.637 95.3724 114.637 95.3724L115.448 91.3509C115.448 91.3509 117.394 88.3996 117.523 87.6131C117.653 86.8267 118.545 87.0294 118.983 86.6402C119.421 86.251 120.43 84.52 120.604 82.8822C120.779 81.2444 120.783 79.3634 118.881 79.9147C117.231 79.4728 118.265 75.9864 118.265 75.9864L115.367 73.4324L105.913 72.9135Z" fill="white"/>
<path opacity="0.5" d="M116.818 97.8412C116.723 98.0918 116.613 98.3367 116.49 98.575C115.444 100.545 110.887 104.303 110.887 104.303L109.509 100.067L108.755 104.303C107.235 103.638 102.597 99.6209 102.597 99.6209C102.597 99.6209 102.439 99.2439 102.249 98.6561L102.48 98.575C102.48 98.575 102.285 96.3818 102.853 94.9264C103.963 93.1022 106.501 93.5684 106.501 93.5684C106.501 93.5684 110 92.0157 111.893 92.8833C113.786 93.7508 115.724 93.0778 116.409 93.8805C117.094 94.6832 116.672 97.7966 116.672 97.7966L116.818 97.8412Z" fill="white"/>
<path opacity="0.2" d="M129.098 102.511L116.818 97.8412L116.664 97.7804C116.664 97.7804 116.709 97.4561 116.745 96.9696L116.49 98.5628L114.674 101.028C116.615 101.742 118.511 102.576 120.349 103.525C121.23 103.996 121.948 104.722 122.41 105.607C122.873 106.491 123.059 107.495 122.944 108.487L120.682 127.844L119.753 138.835L122.555 141.741C125.506 140.793 135.977 136.877 141.535 127.682C141.535 127.699 136.152 110.052 129.098 102.511ZM126.795 131.294C126.369 131.513 128.011 126.953 127.233 125.919C126.455 124.885 124.107 124.982 124.107 124.982L124.306 123.738L125.696 116.603L126.159 116.056C126.159 116.056 130.934 124.24 131.79 127.127C131.79 127.135 126.584 131.294 126.795 131.294Z" fill="black"/>
<path opacity="0.2" d="M100.298 125.919L98.3889 119.538C98.3889 119.538 94.9633 107.859 92.6161 104.98L93.2322 113.193C93.2322 113.193 91.2053 123.004 89.3526 125.919C87.5 128.834 87.0865 129.567 89.3526 129.567C91.6188 129.567 97.1362 133.962 97.1362 133.962L96.7105 130.313L100.298 125.919ZM95.4862 128.388L93.9498 127.034L97.8092 117.543L99.455 124.84C99.455 124.84 96.8119 124.642 95.9079 125.278C95.0038 125.915 95.4862 128.388 95.4862 128.388Z" fill="black"/>
<path d="M104.604 90.3577C104.604 90.3577 104.952 93.7994 104.604 95.3724" stroke="#263238" stroke-width="0.599155" stroke-linecap="round" stroke-linejoin="round"/>
<path d="M114.99 94.9102C114.994 93.8035 115.121 92.7007 115.371 91.6225" stroke="#263238" stroke-width="0.599155" stroke-linecap="round" stroke-linejoin="round"/>
<path d="M115.91 75.4797C115.91 75.4797 117.994 78.0945 117.884 80.0728C117.775 82.0511 117.621 84.3943 117.674 86.6889C117.726 88.9834 113.988 93.7913 112.067 94.217C110.145 94.6427 108.491 94.7521 107.263 93.5238C106.035 92.2954 104.806 90.5887 103.209 88.3996C101.612 86.2105 101.993 81.4066 101.993 81.4066" stroke="#263238" stroke-width="0.599155" stroke-linecap="round" stroke-linejoin="round"/>
<path d="M110.892 83.2349C110.765 83.9533 110.71 84.6826 110.729 85.4119C110.688 86.0265 110.879 86.6343 111.264 87.1145C111.496 87.3496 111.828 87.5402 111.873 87.8645C111.871 88.0105 111.831 88.1535 111.755 88.2783C111.68 88.4032 111.572 88.5053 111.443 88.5739C111.183 88.7051 110.932 88.8541 110.693 89.0199" stroke="#263238" stroke-width="0.599155" stroke-linecap="round" stroke-linejoin="round"/>
<path d="M107.596 89.2712C107.596 89.2712 107.835 90.8239 109.915 91.1482" stroke="#263238" stroke-width="0.599155" stroke-linecap="round" stroke-linejoin="round"/>
<path d="M107.81 84.4186C107.81 84.8686 107.616 85.2294 107.377 85.2294C107.137 85.2294 106.943 84.8686 106.943 84.4186C106.943 83.9686 107.137 83.6078 107.377 83.6078C107.616 83.6078 107.81 83.9727 107.81 84.4186Z" fill="#263238"/>
<path d="M114.017 84.6132C114.017 85.0632 113.822 85.424 113.583 85.424C113.344 85.424 113.149 85.0592 113.149 84.6132C113.149 84.1673 113.344 83.8024 113.583 83.8024C113.822 83.8024 114.017 84.1632 114.017 84.6132Z" fill="#263238"/>
<path d="M112.764 82.6471C112.764 82.6471 114.791 80.6201 116.49 82.8822" stroke="#263238" stroke-width="1.1983" stroke-linecap="round" stroke-linejoin="round"/>
<path d="M108.496 82.6876C108.496 82.6876 107.215 81.2525 105.196 82.6876" stroke="#263238" stroke-width="1.1983" stroke-linecap="round" stroke-linejoin="round"/>
<path d="M104.758 92.2711C104.758 92.2711 105.994 95.6764 108.755 96.6453C111.515 97.6142 115.18 92.5914 115.18 92.5914L114.99 91.9387C114.99 91.9387 112.586 95.0602 109.914 94.5292C107.243 93.9981 104.604 90.3739 104.604 90.3739L104.758 92.2711Z" fill="#263238"/>
<path d="M102.28 86.1294C102.28 86.1294 100.634 86.7091 100.197 85.4281C99.7588 84.147 98.2589 80.7701 99.5724 79.6431C100.886 78.5161 101.94 81.1309 101.94 81.1309" stroke="#263238" stroke-width="0.599155" stroke-linecap="round" stroke-linejoin="round"/>
<path d="M117.669 86.8267C117.669 86.8267 119.198 87.1348 119.636 85.8537C120.073 84.5727 121.573 81.1957 120.26 80.0687C118.946 78.9418 117.892 81.5565 117.892 81.5565" stroke="#263238" stroke-width="0.599155" stroke-linecap="round" stroke-linejoin="round"/>
<path d="M101.94 84.4186C102.512 84.3285 103.028 84.0241 103.384 83.5673C103.601 83.1663 103.738 82.7272 103.789 82.2741C103.939 81.412 104.015 80.5385 104.016 79.6634C103.998 79.3215 104.03 78.9788 104.109 78.6458C104.231 78.3108 104.418 78.0034 104.661 77.7418C105.232 77.0688 105.925 76.5013 106.473 75.804C106.766 75.475 106.989 75.0896 107.129 74.6714C107.268 74.2531 107.321 73.8109 107.283 73.3717C108.538 74.4057 110.003 75.1525 111.577 75.5594C113.151 75.9663 114.794 76.0235 116.393 75.727C119.291 75.1594 122.068 72.6176 121.732 69.4231C121.668 68.8875 121.439 68.3853 121.075 67.9868C120.711 67.5884 120.232 67.3138 119.705 67.2016C118.274 66.8448 116.989 67.6069 115.691 68.0975C113.328 68.9893 111.013 67.457 108.625 67.2016C106.598 66.9786 104.073 67.234 103.011 69.265C103.011 69.265 99.3621 69.6947 97.7405 72.7109C96.1189 75.727 99.1878 79.8985 99.1878 79.8985C99.1878 79.8985 100.404 78.4066 101.997 81.4228L101.94 84.4186Z" fill="#263238"/>
<path d="M116.161 74.7094C116.161 74.7094 115.213 79.6553 117.69 82.0511C117.69 82.0511 118.233 80.5633 118.78 80.1985C119.175 79.3208 119.342 78.3578 119.266 77.3984C119.19 76.4391 118.874 75.5143 118.346 74.7094C116.514 71.8312 116.161 74.7094 116.161 74.7094Z" fill="#263238"/>
<path opacity="0.2" d="M120.678 69.0826C120.46 69.7574 120.092 70.3737 119.6 70.8844C119.108 71.3952 118.506 71.7869 117.84 72.0298C114.402 73.4325 111.066 71.8798 107.62 71.5758C104.811 71.3244 101.709 73.8622 101.511 76.7486" stroke="white" stroke-width="0.599155" stroke-linecap="round" stroke-linejoin="round"/>
<path opacity="0.2" d="M99.3901 75.9864C99.4322 74.8474 99.7977 73.7439 100.444 72.8049C101.09 71.8659 101.99 71.1303 103.039 70.6839" stroke="white" stroke-width="0.599155" stroke-linecap="round" stroke-linejoin="round"/>
<path d="M103.809 94.9102C105.321 96.4857 107.145 97.7284 109.164 98.5588C109.164 98.5588 113.279 97.3629 115.371 94.5048" stroke="#263238" stroke-width="0.599155" stroke-linecap="round" stroke-linejoin="round"/>
<path d="M108.014 87.7195C109.841 86.8813 110.643 84.7203 109.805 82.8928C108.967 81.0654 106.806 80.2634 104.978 81.1016C103.151 81.9399 102.349 84.1009 103.187 85.9283C104.025 87.7558 106.186 88.5578 108.014 87.7195Z" stroke="#263238" stroke-width="0.599155" stroke-linecap="round" stroke-linejoin="round"/>
<path d="M115.068 88.04C117.064 87.795 118.483 85.9786 118.238 83.9831C117.993 81.9875 116.177 80.5684 114.181 80.8134C112.186 81.0584 110.767 82.8748 111.012 84.8704C111.257 86.8659 113.073 88.285 115.068 88.04Z" stroke="#263238" stroke-width="0.599155" stroke-linecap="round" stroke-linejoin="round"/>
<path d="M104.604 93.5522C104.235 93.649 103.889 93.8191 103.588 94.0525C103.286 94.2858 103.035 94.5775 102.848 94.9102C102.204 96.0453 102.593 99.6168 102.593 99.6168C102.593 99.6168 105.921 102.909 108.755 104.299L109.59 99.6006L110.887 104.299C110.887 104.299 115.274 101.198 116.49 98.575C116.49 98.575 116.895 95.5143 116.49 94.521C116.398 94.2452 116.222 94.0047 115.988 93.8326C115.753 93.6605 115.471 93.5654 115.18 93.5603" stroke="#263238" stroke-width="0.599155" stroke-linecap="round" stroke-linejoin="round"/>
<path d="M99.3903 124.986C99.3903 124.986 98.0889 116.27 96.3579 112.715" stroke="#263238" stroke-width="0.599155" stroke-linecap="round" stroke-linejoin="round"/>
<path d="M92.6162 104.98C93.6241 106.413 94.5238 107.918 95.308 109.484" stroke="#263238" stroke-width="0.599155" stroke-linecap="round" stroke-linejoin="round"/>
<path d="M126.795 111.487C127.144 110.029 127.623 108.606 128.226 107.234" stroke="#263238" stroke-width="0.599155" stroke-linecap="round" stroke-linejoin="round"/>
<path d="M124.107 124.986C124.107 124.986 125.044 119.011 126.163 114.089" stroke="#263238" stroke-width="0.599155" stroke-linecap="round" stroke-linejoin="round"/>
<path d="M125.696 116.595C126.601 115.395 127.874 114.523 129.321 114.114" stroke="#263238" stroke-width="0.599155" stroke-linecap="round" stroke-linejoin="round"/>
<path d="M116.668 97.7804C116.668 97.7804 124.22 100.801 129.097 102.515C129.097 102.515 135.097 108.154 141.531 127.699C141.531 127.699 135.636 137.614 124.423 140.793" stroke="#263238" stroke-width="0.599155" stroke-linecap="round" stroke-linejoin="round"/>
<path d="M126.369 131.647L131.789 127.135C131.789 127.135 134.655 124.958 137.635 126.446" stroke="#263238" stroke-width="0.599155" stroke-linecap="round" stroke-linejoin="round"/>
<path d="M126.163 116.056C126.163 116.056 130.642 122.676 131.789 127.135" stroke="#263238" stroke-width="0.599155" stroke-linecap="round" stroke-linejoin="round"/>
<path d="M95.5472 128.639L93.9621 127.135C93.9621 127.135 91.6109 126.73 88.9434 128.509" stroke="#263238" stroke-width="0.599155" stroke-linecap="round" stroke-linejoin="round"/>
<path d="M93.9619 127.135C93.9619 127.135 95.9321 120.649 97.874 117.329" stroke="#263238" stroke-width="0.599155" stroke-linecap="round" stroke-linejoin="round"/>
<path d="M102.479 98.575C102.479 98.575 91.6108 102.653 90.5447 103.845C89.4785 105.037 85.4286 127.84 85.3191 130.451C85.2259 132.786 93.6905 138.028 97.8863 140.237" stroke="#263238" stroke-width="0.599155" stroke-linecap="round" stroke-linejoin="round"/>
<path d="M110.607 106.282C110.607 106.423 110.565 106.562 110.487 106.68C110.408 106.798 110.296 106.89 110.164 106.944C110.033 106.999 109.889 107.013 109.75 106.985C109.611 106.958 109.483 106.889 109.383 106.789C109.282 106.689 109.214 106.561 109.186 106.422C109.158 106.282 109.173 106.138 109.227 106.007C109.281 105.876 109.373 105.764 109.491 105.685C109.609 105.606 109.748 105.564 109.89 105.564C109.984 105.563 110.078 105.582 110.165 105.618C110.252 105.653 110.332 105.706 110.398 105.773C110.465 105.84 110.518 105.919 110.554 106.006C110.59 106.094 110.608 106.187 110.607 106.282Z" fill="#263238"/>
<path d="M123.183 144.478H98.4537C98.3 144.478 98.1525 144.417 98.0438 144.308C97.9351 144.199 97.874 144.052 97.874 143.898C97.874 143.744 97.9351 143.597 98.0438 143.488C98.1525 143.379 98.3 143.318 98.4537 143.318H123.183C123.337 143.318 123.484 143.379 123.593 143.488C123.701 143.597 123.762 143.744 123.762 143.898C123.762 144.052 123.701 144.199 123.593 144.308C123.484 144.417 123.337 144.478 123.183 144.478Z" fill="#263238"/>
<path d="M124.05 142.54L127.362 126.973C127.414 126.731 127.411 126.482 127.353 126.242C127.295 126.002 127.185 125.778 127.029 125.586C126.874 125.395 126.677 125.24 126.454 125.134C126.231 125.028 125.988 124.974 125.741 124.974H96.8363C96.5916 124.974 96.35 125.029 96.1288 125.133C95.9077 125.238 95.7125 125.391 95.5574 125.58C95.4023 125.769 95.2911 125.99 95.2319 126.228C95.1726 126.465 95.1667 126.713 95.2147 126.953L98.1863 142.001C98.2591 142.37 98.4559 142.704 98.7442 142.947C99.0324 143.189 99.3948 143.326 99.7714 143.335L122.388 143.853C122.775 143.862 123.152 143.736 123.456 143.496C123.759 143.256 123.969 142.918 124.05 142.54Z" fill="white" stroke="#263238" stroke-width="0.599155" stroke-linecap="round" stroke-linejoin="round"/>
<path d="M113.502 133.958C113.501 134.414 113.365 134.859 113.111 135.238C112.857 135.617 112.497 135.912 112.075 136.086C111.654 136.26 111.19 136.305 110.743 136.216C110.296 136.126 109.885 135.906 109.563 135.583C109.241 135.261 109.021 134.85 108.933 134.402C108.844 133.955 108.89 133.491 109.065 133.07C109.239 132.649 109.535 132.289 109.914 132.036C110.293 131.782 110.739 131.647 111.195 131.647C111.499 131.647 111.799 131.707 112.079 131.823C112.359 131.939 112.614 132.109 112.828 132.324C113.042 132.539 113.212 132.793 113.328 133.074C113.443 133.354 113.503 133.655 113.502 133.958Z" fill="#263238"/>
<path d="M118.039 126.462H121.472" stroke="#263238" stroke-width="0.599155" stroke-linecap="round" stroke-linejoin="round"/>
<path d="M101.64 126.462H114.674" stroke="#263238" stroke-width="0.599155" stroke-linecap="round" stroke-linejoin="round"/>
<path d="M124.107 159.068L121.472 165.984C121.472 165.984 114.751 164.289 106.144 162.526C97.1404 160.681 87.7393 158.294 82.8625 149.736C82.2706 148.694 81.8733 147.461 82.153 146.294C82.8543 143.339 86.7015 142.536 89.2352 142.24C90.8281 142.068 92.4289 141.978 94.0311 141.972C94.8418 141.972 97.5377 141.531 98.1904 142.013C99.1711 142.728 100.218 143.349 101.316 143.866C102.755 144.478 123.763 143.318 123.763 143.318C124.128 142.521 124.352 141.667 124.423 140.793C127.727 139.114 135.369 137.696 138.612 138.324C143.692 139.309 146.655 142.272 146.092 145.378C145.528 148.483 134.307 156.81 124.107 159.068Z" fill="#263238"/>
<path d="M124.107 159.068C124.107 159.068 117.714 157.373 112.493 153.846C107.271 150.319 103.193 146.225 95.916 147.072" stroke="white" stroke-width="0.599155" stroke-linecap="round" stroke-linejoin="round"/>
<path d="M111.297 153.015C114.597 152.067 117.017 149.93 119.664 147.883C122.456 145.642 125.455 143.671 128.619 141.997" stroke="white" stroke-width="0.599155" stroke-linecap="round" stroke-linejoin="round"/>
<path d="M110.133 84.9943H111.102" stroke="#263238" stroke-width="0.599155" stroke-linecap="round" stroke-linejoin="round"/>
</svg>
