<svg version="1.2" baseProfile="tiny-ps" xmlns="http://www.w3.org/2000/svg" viewBox="0 0 207 124" width="100" height="60">
	<title>nextjs_light-svg</title>
	<style>
		tspan { white-space:pre }
		.shp0 { fill: #ffffff } 
	</style>
	<g id="Page-1">
		<g id="Black-Next.js">
			<g id="next-black">
				<g id="EXT-+-Type-something">
					<path id="EXT" class="shp0" d="M48.94 32.63L87.9 32.63L87.9 35.71L52.51 35.71L52.51 58.91L85.79 58.91L85.79 61.99L52.51 61.99L52.51 87.45L88.31 87.45L88.31 90.53L48.94 90.53L48.94 32.63ZM91.39 32.63L95.53 32.63L113.87 58.1L132.62 32.63L158.12 0.29L116.23 60.77L137.82 90.53L133.52 90.53L113.87 63.45L94.15 90.53L89.93 90.53L111.68 60.77L91.39 32.63ZM139.36 35.71L139.36 32.63L183.76 32.63L183.76 35.71L163.3 35.71L163.3 90.53L159.73 90.53L159.73 35.71L139.36 35.71Z" />
					<path id="Type-something" class="shp0" d="M0.2 32.63L4.67 32.63L66.22 124.3L40.79 90.53L3.94 37.01L3.77 90.53L0.2 90.53L0.2 32.63Z" />
				</g>
				<path id=".JS" class="shp0" d="M183.4 86.52C184.13 86.52 184.67 85.96 184.67 85.23C184.67 84.51 184.13 83.94 183.4 83.94C182.67 83.94 182.12 84.51 182.12 85.23C182.12 85.96 182.67 86.52 183.4 86.52ZM186.91 83.13C186.91 85.28 188.46 86.68 190.73 86.68C193.14 86.68 194.6 85.23 194.6 82.72L194.6 73.89L192.66 73.89L192.66 82.71C192.66 84.11 191.95 84.85 190.71 84.85C189.6 84.85 188.84 84.16 188.82 83.13L186.91 83.13ZM197.15 83.02C197.29 85.25 199.15 86.68 201.93 86.68C204.9 86.68 206.76 85.18 206.76 82.79C206.76 80.91 205.7 79.88 203.13 79.28L201.75 78.94C200.12 78.56 199.46 78.05 199.46 77.16C199.46 76.03 200.48 75.3 202.02 75.3C203.48 75.3 204.49 76.01 204.67 77.17L206.56 77.17C206.45 75.06 204.59 73.58 202.05 73.58C199.31 73.58 197.49 75.06 197.49 77.29C197.49 79.12 198.52 80.21 200.79 80.74L202.4 81.13C204.06 81.52 204.79 82.09 204.79 83.04C204.79 84.15 203.64 84.96 202.08 84.96C200.4 84.96 199.24 84.2 199.07 83.02L197.15 83.02Z" />
			</g>
		</g>
	</g>
</svg>