<svg version="1.2" baseProfile="tiny-ps" xmlns="http://www.w3.org/2000/svg" viewBox="0 0 539 456" width="118" height="100">
	<title>Novo Projeto</title>
	<style>
		tspan { white-space:pre }
		.shp0 { fill: #ff8100 } 
	</style>
	<path id="Layer" fill-rule="evenodd" class="shp0" d="M434.2 145.2C488.6 163.9 528 193.3 528 223.6C528 255.3 486.2 286.2 428.5 305.3C425.4 306.3 422.3 307.3 419.1 308.2C420.2 312.8 421.2 317.3 422.1 321.7C433.5 379.3 424.7 426.6 397.7 442.2C371.6 457.3 329.3 442.4 286.5 405.6C281.9 401.6 277.3 397.5 272.9 393.2C269.4 396.6 265.9 399.8 262.4 402.9C218.2 441.6 172.8 457.6 145.8 442C119.6 426.9 111.4 382.9 121.9 327.4C123.1 321.3 124.4 315.4 125.9 309.4C121.3 308.1 116.8 306.6 112.3 305.1C56.8 286.1 16 254.8 16 223.6C16 193.4 54.3 164.2 107.7 145.7C113.6 143.6 119.9 141.6 126.3 139.8C124.9 134.2 123.7 128.7 122.6 123.1C111.6 66.7 119.4 21.6 145.6 6.4C172.9 -9.5 218.5 7.5 264 47.9C266.8 50.4 269.6 53 272.3 55.6C276.3 51.7 280.5 47.8 284.8 44.1C328.2 6.3 371.1 -9.4 397.4 5.7C424.7 21.5 432.8 69.4 420.5 129C419.7 132.7 418.9 136.4 418 140.1C423.4 141.7 428.8 143.4 434.2 145.2ZM298.9 60.3C294.9 63.8 291.1 67.3 287.2 71C302.6 87.7 316.8 105.5 329.8 124.1C352.4 126.1 374.9 129.7 397.1 134.7C398 131.4 398.7 128.1 399.4 124.7C410 73.2 403.5 34 386.6 24.3C370.8 15.2 336.1 27.9 298.9 60.3ZM183.2 275.5C178.2 266.9 173.5 258.2 168.9 249.4C162.5 264.6 157 279.5 152.6 293.9C167.9 297.2 183.4 299.7 199 301.4C193.5 292.9 188.3 284.2 183.2 275.5ZM168.9 198.8C173.4 190 178.2 181.3 183.1 172.8C188 164.2 193.2 155.7 198.5 147.4C182.6 149.4 167.3 152 152.9 155.2C157.3 169.3 162.6 183.9 168.9 198.8ZM201.8 264.7C209.5 278 217.7 291 226.4 303.7C241.1 304.6 256.3 305.1 272 305.1C287.7 305.1 303.2 304.6 318.1 303.5C326.6 290.7 334.7 277.8 342.3 264.5C350 251.1 357.2 237.5 363.9 223.7C357.1 210 349.9 196.5 342.2 183.3C334.5 170.1 326.4 157.2 317.9 144.6C303 143.5 287.6 142.9 272 142.9C256.4 142.9 241.1 143.5 226.1 144.6C217.5 157.3 209.3 170.2 201.7 183.5C194.1 196.8 186.9 210.3 180.3 224.1C187 237.9 194.1 251.4 201.8 264.7ZM345.4 300.9C361.2 299.1 376.9 296.4 392.4 292.9C387.5 277.8 381.9 263.1 375.5 248.6C370.8 257.6 366 266.5 360.9 275.3C355.9 283.9 350.8 292.5 345.4 300.9ZM375.3 198.8C381.4 184.6 386.8 170.2 391.4 155.4C377 152.1 361.6 149.4 345.5 147.4C350.8 155.7 355.9 164.1 360.8 172.6C365.8 181.2 370.6 190 375.3 198.8ZM242.3 122.1C262.1 121.2 282 121.2 301.8 122.1C292.6 109.7 282.7 97.7 272.2 86.3C262.2 97.2 252.1 109.2 242.3 122.1ZM156.2 25C140.4 34.1 134.2 70.6 143.6 119C144.7 124.2 145.8 129.4 147.1 134.5C169.3 129.6 191.7 126.1 214.3 124.1C227.4 105.5 241.7 87.7 257.2 71C254.6 68.6 252.1 66.2 249.6 64C210.3 29.2 173 15.2 156.2 25ZM131.7 288.6C138.6 266.6 146.9 245 156.5 224.1C147 203.5 138.8 182.2 132 160.5C126.2 162.2 120.4 164 114.7 166C69.1 181.9 37.5 205.3 37.5 223.6C39.4 235.7 46.2 246.5 56.3 253.5C73.8 267.4 98 278 119.3 284.7C123.4 286.1 127.5 287.4 131.7 288.6ZM257.9 377.7C242.4 360.9 227.9 343 214.7 324.3C191.8 322.6 169.2 319.3 146.8 314.5C145.4 320 144.2 325.6 143.1 331.2C134.1 378.7 140.7 414 156.6 423.2C168 427.7 180.8 427.2 191.9 421.9C212.7 413.7 231.8 401.7 248.3 386.6C251.5 383.8 254.7 380.8 257.9 377.7ZM272.8 362.3C283.3 350.7 293.2 338.6 302.4 325.9C292.4 326.4 282.3 326.6 272 326.6C262 326.6 252.1 326.4 242.5 326C252.4 339.1 262.6 351.3 272.8 362.3ZM403.5 392.3C406.7 370.1 405.9 347.6 401 326C400.2 322 399.3 317.9 398.3 313.8C375.8 318.9 353 322.4 330.1 324.3C317.3 343.1 303.2 361 287.9 377.9C292.2 381.9 296.4 385.8 300.6 389.4C337.2 420.8 371.1 432.8 387 423.6C396.6 415.9 402.6 404.5 403.5 392.3ZM506.5 223.4C506.5 205.2 473.8 181.4 427.2 165.4C422.4 163.8 417.4 162.2 412.2 160.7C405.4 182.2 397.3 203.2 387.7 223.6C397.6 244.3 406.2 265.6 413.2 287.4C416.1 286.6 418.9 285.7 421.7 284.8C471.6 268.3 506.5 243 506.5 223.4ZM226.2 224C226.2 198.7 246.7 178.2 272 178.2C297.3 178.2 317.8 198.7 317.8 224C317.8 249.3 297.3 269.8 272 269.8C246.7 269.8 226.2 249.3 226.2 224Z" />
</svg>