<svg version="1.2" baseProfile="tiny-ps" xmlns="http://www.w3.org/2000/svg" viewBox="0 0 640 512" width="100" height="80">
	<title>sass-svg</title>
	<style>
		tspan { white-space:pre }
		.shp0 { fill: #ff8100 } 
	</style>
	<path id="Layer" fill-rule="evenodd" class="shp0" d="M550.94 291.9C608.85 291.6 641.54 329 639.94 363C638.84 389.9 614.25 400.9 609.65 401.7C606.35 402.3 604.55 402.4 604.05 399.8C603.75 398 604.95 397.1 608.85 394.7C612.75 392.3 624.45 384.2 626.55 369.7C628.65 355.2 617.75 320.4 562.07 313.9C536.07 310.9 515.68 314.5 499.98 321.1C502.88 328.7 505.08 336.6 505.38 344.5C506.18 362 494.09 374.9 481.59 384.1C479.95 385.29 478.26 386.42 476.53 387.49C474.8 388.55 473.03 389.55 471.22 390.48C469.41 391.41 467.57 392.27 465.7 393.05C463.83 393.84 461.93 394.56 460 395.2C454.8 397.4 447.8 399.7 442.9 398.7C432 396.5 426.2 386.9 433.6 365.6C437.6 354.1 449.1 336.6 467.69 321.5C463.39 312.8 458.7 303.9 456.3 295.8C455.64 293.69 455.02 291.56 454.43 289.43C453.84 287.3 453.29 285.15 452.77 283C452.26 280.85 451.78 278.69 451.33 276.52C450.88 274.36 450.47 272.18 450.1 270C450.1 270 434.8 301.72 415.01 330.62C413.91 332.32 412.71 334.02 411.61 335.62C415.41 344.62 418.51 354.22 418.91 363.82C419.61 381.22 412.01 394.42 399.51 403.62C397.96 404.73 396.37 405.79 394.75 406.79C393.13 407.79 391.47 408.74 389.78 409.62C388.1 410.51 386.38 411.34 384.63 412.1C382.89 412.87 381.11 413.58 379.32 414.22C375.42 416.02 367.32 418.82 355.82 419.62C349.53 420.12 343.53 419.72 340.13 417.12C335.53 413.72 334.93 409.32 337.33 403.42C339.33 398.42 354.54 381.02 367.33 365.82C370.83 361.62 374.23 357.32 377.23 353.32C377.22 353.31 377.2 353.29 377.19 353.28C377.18 353.26 377.17 353.25 377.16 353.23C377.15 353.21 377.15 353.19 377.14 353.18C377.14 353.16 377.13 353.14 377.13 353.12C377.13 353.12 379.43 350.12 383.23 344.92C378.53 334.82 372.63 324.42 369.83 314.92C369.17 312.81 368.55 310.68 367.96 308.55C367.37 306.42 366.82 304.27 366.3 302.12C365.79 299.97 365.31 297.81 364.86 295.64C364.41 293.48 364 291.3 363.63 289.12C363.63 289.12 348.14 328.82 331.94 360.62C319.45 385.22 311.15 400.12 307.35 406.62L307.35 406.92C307.35 406.92 306.85 407.82 305.85 409.32C305.35 410.12 305.15 410.52 305.15 410.52L305.15 410.42C300.94 416.62 291.54 428.72 282.15 428.72C256.45 428.72 265.85 376.52 265.85 376.52C265.85 376.52 258.35 395.82 249.85 412.42C242.96 426.02 236.76 437.42 222.96 437.42C219.06 437.42 212.77 437.32 207.57 432.42C195.77 421.22 186.67 392.72 188.47 370.72C189.97 351.92 192.87 338.92 196.87 328.12C189.77 332.02 181.67 336.52 173.38 341.42C169.08 343.92 164.78 346.42 160.58 348.92C160.68 349.22 160.88 349.42 160.98 349.72C171.58 370.12 174.37 414.92 151.38 449.22C128.39 483.52 85.6 504.42 43.81 492.82C30.42 489.02 10.02 461.22 27.52 422.42C43.01 388.22 104.9 355.82 121.19 347.72C122.59 346.92 124.09 346.12 125.69 345.22C93.2 316.82 12.02 278.42 0.63 219.52C-2.57 202.92 5.22 163.22 53.91 117.62C94.9 79.32 151.88 49.92 204.57 31.22C293 -0.18 386.52 18.32 400.88 74.72C414.98 130.22 366.89 196.52 305.11 220.32C250.12 241.62 204.64 238.22 185.94 232.12C164.65 225.12 152.15 211.12 149.15 203.22C147.95 200.12 145.85 194.92 149.15 193.12C151.15 192.02 151.95 192.32 157.25 198.22C162.35 203.82 182.74 218.82 221.53 214.52C323.3 203.12 384.59 124.02 365.19 81.52C351.7 51.72 273.35 38.32 175.35 87.12C55.78 146.72 49.28 195.82 48.28 214.52C45.48 265.82 111.56 292.82 147.35 331.02C147.85 331.52 148.25 332.02 148.75 332.52C155.45 328.82 162.55 324.92 169.45 321.12C187.45 311.22 204.55 301.92 212.45 297.62C225.03 279.32 250.63 259.12 269.03 259.12C298.52 259.12 288.42 301.52 288.42 301.52C288.42 301.52 289.02 299.52 289.82 299.52C290.62 299.52 293.92 294.02 303.02 297.32C312.42 300.82 310.22 307.32 310.32 308.02C310.42 309.32 299.32 346.92 294.62 371.12C292.42 382.62 293.72 391.02 294.32 391.02C295.22 391.02 297.12 388.12 298.82 384.92L298.82 384.82C298.82 384.82 300.12 382.42 302.32 378.12C302.32 377.92 302.12 378.42 301.82 378.92C302.02 378.52 302.32 378.02 302.72 377.22C305.32 372.22 308.92 364.82 313.12 355.62C321.31 337.52 352.6 267.92 355.2 260.22C357.8 252.52 359.2 244.52 360.5 241.12C361.8 237.72 372.91 235.12 385.8 235.22C398.69 235.32 399.99 240.82 400.09 241.92C400.19 243.02 393.89 258.32 392.49 269.12C391.09 279.92 392.39 285.32 393.59 294.42C394.39 300.42 398.09 307.92 402.49 316.42C415.79 294.62 439.28 252.82 441.58 241.12C441.89 239.5 442.24 237.88 442.61 236.27C442.99 234.66 443.4 233.06 443.84 231.46C444.29 229.87 444.76 228.29 445.27 226.71C445.77 225.14 446.31 223.57 446.88 222.02C448.17 218.62 459.27 216.02 472.17 216.12C485.07 216.22 486.37 221.72 486.47 222.82C486.57 223.92 480.27 239.22 478.87 250.02C477.47 260.82 478.77 266.22 479.97 275.32C480.97 283.12 487.07 293.52 492.97 305.42C497.46 303.21 502.08 301.25 506.79 299.57C511.51 297.88 516.32 296.47 521.19 295.33C526.07 294.2 531.01 293.34 535.98 292.77C540.96 292.2 545.96 291.92 550.97 291.92L550.94 291.9ZM121.79 436.6C141.19 415.5 149.18 388.7 140.89 358.3C139.89 358.9 138.89 359.4 137.99 360C137.99 360 137.59 360.2 136.79 360.7C131.99 363.6 128.09 366 125.39 367.6C113.59 375 95.8 387 82 400C59.31 421.42 54.61 451 66.51 457.92C77.6 464.32 103.4 456.72 121.79 436.62L121.79 436.6ZM272.35 286.02C269.75 281.52 258.65 285.12 248.56 296.42C242.26 303.42 231.66 321.42 226.66 336.52C216.76 366.52 221.06 397.02 228.06 398.82C236.26 400.92 249.75 360.92 256.15 345.22C260.15 335.42 275.85 291.92 272.35 286.02ZM367.12 398.22C374.92 393.42 392.11 381.32 392.24 363.42C392.24 362.82 392.14 362.32 392.14 361.82C388.15 367.02 384.45 371.72 381.25 375.72C375.75 382.52 361.85 397.42 361.85 397.42C361.85 397.42 359.85 399.32 360.75 399.82C361.95 400.52 364.45 399.62 367.15 398.22L367.12 398.22ZM452.74 378.72C462.43 375.22 478.53 366.82 478.63 344.32C478.61 343.4 478.55 342.49 478.46 341.57C478.38 340.66 478.25 339.75 478.09 338.85C477.93 337.94 477.74 337.05 477.51 336.16C477.28 335.27 477.02 334.39 476.73 333.52C466.32 342.72 460.33 352.32 457.73 358.02C451.03 372.62 450.73 377.32 452.73 378.72L452.74 378.72Z" />
</svg>